<?xml version="1.0" encoding="utf-8"?>
<!-- Generator: Adobe Illustrator 25.4.1, SVG Export Plug-In . SVG Version: 6.00 Build 0)  -->
<svg version="1.1" id="Layer_1" xmlns="http://www.w3.org/2000/svg" xmlns:xlink="http://www.w3.org/1999/xlink" x="0px" y="0px"
	 viewBox="0 0 332.67 106.96" style="enable-background:new 0 0 332.67 106.96;" xml:space="preserve">
<style type="text/css">
	.st0{fill:#F58220;}
</style>
<g>
	<g>
		<path d="M7.89,8.58H7.6c0-1.71-0.63-3.17-1.87-4.39C4.47,2.97,2.99,2.37,1.28,2.37H0.1L0,1.38h7.89V8.58z"/>
		<path d="M7.89,63.23v7.2H0v-0.99h1.28c1.71,0,3.17-0.61,4.39-1.83c1.22-1.22,1.86-2.68,1.92-4.39H7.89z"/>
		<rect x="7.6" y="1.38" width="14.8" height="69.06"/>
		<path d="M35.81,1.38c7.76,0,14.47,1.4,20.13,4.19c5.66,2.8,10.01,6.78,13.07,11.94c3.06,5.16,4.59,11.3,4.59,18.4
			c0,7.1-1.53,13.24-4.59,18.4c-3.06,5.16-7.42,9.14-13.07,11.94c-5.66,2.8-12.37,4.19-20.13,4.19H12.33l-0.1-4.14
			c1.91,0,3.9,0,5.97,0s4.08,0,6.02,0c1.94,0,3.7,0,5.28,0c1.58,0,3.29,0,5.13,0c4.74,0,8.81-1.23,12.23-3.7
			c3.42-2.47,6.05-5.97,7.89-10.51c1.84-4.54,2.76-9.93,2.76-16.18c0-6.25-0.92-11.64-2.76-16.18c-1.84-4.54-4.47-8.04-7.89-10.51
			c-3.42-2.47-7.5-3.7-12.23-3.7c-1.91,0-3.68,0-5.33,0c-1.64,0-3.49,0-5.52,0c-2.04,0-4.14,0-6.31,0s-4.24,0-6.22,0V1.38H35.81z"/>
		<path d="M144.94,8.58h-0.3c-0.07-1.71-0.71-3.17-1.92-4.39c-1.22-1.22-2.68-1.83-4.39-1.83c-0.07,0-0.28,0-0.64,0
			c-0.36,0-0.58,0-0.64,0V1.38h7.89V8.58z"/>
		<path d="M145.93,64.23v6.2h-6.8v-0.85c0.06,0,0.24,0,0.55,0c0.31,0,0.5,0,0.55,0c1.47,0,2.73-0.52,3.78-1.57
			c1.05-1.05,1.6-2.31,1.66-3.78H145.93z"/>
		<rect x="144.65" y="1.38" width="14.8" height="69.06"/>
		<path d="M159.15,8.58v-7.2h7.89v0.99c-0.07,0-0.28,0-0.64,0c-0.36,0-0.58,0-0.64,0c-1.71,0-3.17,0.61-4.39,1.83
			c-1.22,1.22-1.86,2.68-1.92,4.39H159.15z"/>
		<path d="M158.16,64.23h0.26c0.05,1.47,0.61,2.73,1.66,3.78c1.05,1.05,2.31,1.57,3.78,1.57c0.05,0,0.24,0,0.55,0s0.5,0,0.55,0v0.85
			h-6.8V64.23z"/>
		<polygon points="198.41,2.07 168.72,37.29 162.6,37.88 189.73,2.07 		"/>
		<path d="M173.65,27.92l25.85,35.41c1.51,1.97,3.06,3.47,4.64,4.49c1.58,1.02,3.39,1.56,5.42,1.63v0.99h-8.09
			c-0.72,0-1.92-0.03-3.6-0.1c-1.68-0.06-3.57-0.33-5.67-0.79c-2.11-0.46-4.23-1.27-6.36-2.42c-2.14-1.15-4-2.78-5.57-4.88
			c-0.33-0.46-0.99-1.35-1.97-2.66s-2.14-2.89-3.45-4.74c-1.32-1.84-2.68-3.73-4.09-5.67c-1.41-1.94-2.75-3.76-4-5.48
			c-1.25-1.71-2.63-3.65-4.14-5.82L173.65,27.92z"/>
		<path d="M205.32,1.38v0.89h-0.39c-2.17,0-4.19,0.44-6.07,1.33c-1.87,0.89-3.47,2.06-4.78,3.5l-7.99-0.2
			c0.79-1.12,0.92-2.17,0.39-3.16c-0.53-0.99-1.45-1.48-2.76-1.48h-0.99V1.38h22.2H205.32z"/>
		<path d="M230.96,0c1.32,0,2.94,0.07,4.88,0.2c1.94,0.13,3.95,0.31,6.02,0.54c2.07,0.23,3.88,0.46,5.43,0.69
			c1.54,0.23,2.62,0.48,3.21,0.74l-1.19,13.32h-0.99c0-3.42-1.27-6.17-3.8-8.24c-2.53-2.07-5.9-3.11-10.11-3.11
			c-3.81,0-6.89,0.92-9.22,2.76c-2.33,1.84-3.57,4.08-3.7,6.71c-0.07,1.97,0.56,3.68,1.87,5.13c1.32,1.45,2.99,2.8,5.03,4.05
			l18.84,12.23c3.02,1.71,5.31,3.95,6.86,6.71c1.54,2.76,2.22,5.98,2.02,9.67c-0.33,6.45-2.8,11.46-7.4,15.04
			c-4.6,3.59-10.85,5.38-18.74,5.38c-2.89,0-5.71-0.24-8.44-0.74c-2.73-0.49-5.15-1.18-7.25-2.07c-2.11-0.89-3.78-1.96-5.03-3.21
			c-0.53-1.45-0.76-3.19-0.69-5.23c0.06-2.04,0.38-4.11,0.93-6.21c0.56-2.1,1.27-3.85,2.12-5.23h0.89
			c-0.26,3.35,0.34,6.46,1.82,9.32c1.48,2.86,3.65,5.13,6.51,6.81c2.86,1.68,6.26,2.48,10.21,2.42c4.34-0.07,7.7-1.17,10.06-3.3
			c2.37-2.14,3.55-4.72,3.55-7.74c0-2.04-0.61-3.88-1.83-5.53c-1.22-1.64-3.21-3.22-5.97-4.73l-17.26-11.44
			c-3.49-1.97-6.02-4.5-7.6-7.6c-1.58-3.09-2.17-6.44-1.77-10.06c0.26-3.42,1.25-6.43,2.96-9.03c1.71-2.6,4.06-4.62,7.05-6.07
			C223.25,0.72,226.82,0,230.96,0z"/>
		<polygon points="250.6,0.99 250.4,3.06 238.76,3.06 238.76,0.99 		"/>
		<path d="M263.81,8.58h-0.3c-0.07-1.71-0.71-3.17-1.92-4.39c-1.22-1.22-2.68-1.83-4.39-1.83h-1.28V1.38h7.89V8.58z"/>
		<path d="M263.81,63.23v7.2h-7.89v-0.99h1.28c1.71,0,3.17-0.61,4.39-1.83c1.22-1.22,1.86-2.68,1.92-4.39H263.81z"/>
		<rect x="263.52" y="1.38" width="14.8" height="69.06"/>
		<rect x="277.33" y="34.03" width="33.84" height="4.14"/>
		<path d="M278.02,8.58v-7.2h7.89v0.99c-0.06,0-0.49,0-1.28,0c-1.71,0-3.17,0.61-4.39,1.83c-1.22,1.22-1.86,2.68-1.92,4.39H278.02z"
			/>
		<path d="M278.02,63.23h0.3c0.06,1.71,0.7,3.17,1.92,4.39c1.22,1.22,2.68,1.83,4.39,1.83c0.79,0,1.22,0,1.28,0v0.99h-7.89V63.23z"
			/>
		<path d="M310.57,8.58h-0.3c0-1.71-0.63-3.17-1.87-4.39c-1.25-1.22-2.73-1.83-4.44-1.83c-0.79,0-1.22,0-1.28,0V1.38h7.89V8.58z"/>
		<path d="M310.57,63.23v7.2h-7.89v-0.99c0.06,0,0.49,0,1.28,0c1.71,0,3.19-0.61,4.44-1.83c1.25-1.22,1.87-2.68,1.87-4.39H310.57z"
			/>
		<rect x="310.28" y="1.38" width="14.8" height="69.06"/>
		<path d="M324.78,8.58v-7.2h7.89v0.99h-1.28c-1.71,0-3.17,0.61-4.39,1.83c-1.22,1.22-1.86,2.68-1.92,4.39H324.78z"/>
		<path d="M324.78,63.23h0.3c0.07,1.71,0.71,3.17,1.92,4.39c1.22,1.22,2.68,1.83,4.39,1.83h1.28v0.99h-7.89V63.23z"/>
		<path class="st0" d="M135.94,69.59c-1.46,0-2.73-0.53-3.77-1.58c-0.4-0.4-0.71-0.82-0.98-1.26l-0.24-0.51l-0.69-1.58L101.08,0
			L71.91,64.67l-0.69,1.58l-0.24,0.51c-0.27,0.44-0.58,0.87-0.98,1.26c-1.04,1.04-2.31,1.58-3.77,1.58h-1.11v0.84h4.24h2.55h9.86
			c0.55,0,1.09-0.04,1.6-0.16c0.75-0.16,1.49-0.42,2.17-0.78c0,0,0.02,0,0.04,0c1.86-1.02,3.31-2.73,3.95-4.79
			c0.07-0.24,11.55-41.64,11.55-41.64s11.48,41.4,11.55,41.64c0.64,2.06,2.09,3.77,3.95,4.79c0.02,0,0.04,0,0.04,0
			c0.69,0.35,1.42,0.62,2.17,0.78c0.51,0.11,1.04,0.16,1.6,0.16h9.86h2.55h4.24v-0.84H135.94z"/>
		<g>
			<path d="M20.05,106.48l-0.8-2.6c-0.04-0.07-0.08-0.11-0.13-0.11H12.6c-0.05,0-0.1,0.04-0.13,0.11l-0.77,2.6
				c-0.05,0.18-0.17,0.27-0.34,0.27H7.98c-0.11,0-0.19-0.03-0.24-0.09c-0.05-0.06-0.06-0.15-0.03-0.28l5.73-17.94
				c0.05-0.18,0.17-0.27,0.35-0.27h4.17c0.18,0,0.29,0.09,0.35,0.27l5.73,17.94c0.02,0.04,0.03,0.08,0.03,0.13
				c0,0.16-0.1,0.24-0.29,0.24H20.4C20.22,106.75,20.11,106.66,20.05,106.48z M13.52,100.88h4.67c0.11,0,0.14-0.05,0.11-0.16
				l-2.39-7.88c-0.02-0.07-0.04-0.1-0.08-0.09c-0.04,0.01-0.06,0.04-0.08,0.09l-2.34,7.88C13.4,100.83,13.44,100.88,13.52,100.88z"
				/>
			<path d="M62.18,106.15c-1.04-0.54-1.85-1.3-2.41-2.27c-0.57-0.97-0.85-2.1-0.85-3.37v-6.13c0-1.27,0.28-2.4,0.85-3.37
				c0.57-0.97,1.37-1.72,2.41-2.26c1.04-0.53,2.26-0.8,3.64-0.8c1.36,0,2.56,0.25,3.6,0.76c1.04,0.5,1.84,1.22,2.42,2.15
				c0.58,0.93,0.86,2,0.86,3.22c0,0.16-0.11,0.26-0.32,0.29l-3.1,0.19h-0.05c-0.18,0-0.27-0.1-0.27-0.29c0-0.94-0.29-1.69-0.86-2.26
				c-0.58-0.57-1.33-0.85-2.27-0.85c-0.96,0-1.72,0.28-2.3,0.85c-0.58,0.57-0.86,1.32-0.86,2.26v6.4c0,0.92,0.29,1.66,0.86,2.23
				c0.58,0.57,1.34,0.85,2.3,0.85c0.94,0,1.69-0.28,2.27-0.85c0.58-0.57,0.86-1.31,0.86-2.23c0-0.19,0.11-0.29,0.32-0.29l3.1,0.13
				c0.09,0,0.16,0.03,0.23,0.08c0.06,0.05,0.09,0.11,0.09,0.19c0,1.22-0.29,2.3-0.86,3.24c-0.58,0.94-1.38,1.66-2.42,2.18
				c-1.03,0.51-2.23,0.77-3.6,0.77C64.43,106.96,63.22,106.69,62.18,106.15z"/>
			<path d="M119.91,106.48l-0.8-2.6c-0.04-0.07-0.08-0.11-0.13-0.11h-6.53c-0.05,0-0.1,0.04-0.13,0.11l-0.77,2.6
				c-0.05,0.18-0.17,0.27-0.34,0.27h-3.37c-0.11,0-0.19-0.03-0.24-0.09c-0.05-0.06-0.06-0.15-0.03-0.28l5.73-17.94
				c0.05-0.18,0.17-0.27,0.35-0.27h4.17c0.18,0,0.29,0.09,0.35,0.27l5.73,17.94c0.02,0.04,0.03,0.08,0.03,0.13
				c0,0.16-0.1,0.24-0.29,0.24h-3.37C120.07,106.75,119.96,106.66,119.91,106.48z M113.38,100.88h4.67c0.11,0,0.14-0.05,0.11-0.16
				l-2.39-7.88c-0.02-0.07-0.04-0.1-0.08-0.09s-0.06,0.04-0.08,0.09l-2.34,7.88C113.25,100.83,113.29,100.88,113.38,100.88z"/>
			<path d="M159.79,106.65c-0.06-0.06-0.09-0.14-0.09-0.23V88.49c0-0.09,0.03-0.16,0.09-0.23c0.06-0.06,0.14-0.09,0.23-0.09h6.64
				c1.33,0,2.49,0.23,3.49,0.7c1,0.47,1.77,1.13,2.32,1.98c0.55,0.85,0.82,1.83,0.82,2.95v7.33c0,1.11-0.27,2.1-0.82,2.95
				c-0.55,0.85-1.32,1.51-2.32,1.98c-1,0.47-2.16,0.7-3.49,0.7h-6.64C159.92,106.75,159.85,106.72,159.79,106.65z M163.57,103.53
				h3.21c0.81,0,1.47-0.27,1.98-0.82c0.5-0.55,0.76-1.28,0.78-2.2v-6.1c0-0.92-0.25-1.65-0.76-2.2c-0.5-0.55-1.18-0.82-2.03-0.82
				h-3.19c-0.09,0-0.13,0.04-0.13,0.13v11.89C163.44,103.49,163.48,103.53,163.57,103.53z"/>
			<path d="M222.35,91.29c-0.06,0.06-0.14,0.09-0.23,0.09h-8.71c-0.09,0-0.13,0.04-0.13,0.13v4.11c0,0.09,0.04,0.13,0.13,0.13h5.71
				c0.09,0,0.16,0.03,0.23,0.09c0.06,0.06,0.09,0.14,0.09,0.23v2.57c0,0.09-0.03,0.16-0.09,0.23c-0.06,0.06-0.14,0.09-0.23,0.09
				h-5.71c-0.09,0-0.13,0.04-0.13,0.13v4.3c0,0.09,0.04,0.13,0.13,0.13h8.71c0.09,0,0.16,0.03,0.23,0.09
				c0.06,0.06,0.09,0.14,0.09,0.23v2.58c0,0.09-0.03,0.16-0.09,0.23c-0.06,0.06-0.14,0.09-0.23,0.09h-12.26
				c-0.09,0-0.16-0.03-0.23-0.09c-0.06-0.06-0.09-0.14-0.09-0.23V88.49c0-0.09,0.03-0.16,0.09-0.23c0.06-0.06,0.14-0.09,0.23-0.09
				h12.26c0.09,0,0.16,0.03,0.23,0.09c0.06,0.06,0.09,0.14,0.09,0.23v2.57C222.44,91.15,222.41,91.22,222.35,91.29z"/>
			<path d="M270.8,88.17h3.11c0.09,0,0.16,0.03,0.23,0.09c0.06,0.06,0.09,0.14,0.09,0.23v17.94c0,0.09-0.03,0.16-0.09,0.23
				c-0.06,0.06-0.14,0.09-0.23,0.09h-3.11c-0.09,0-0.16-0.03-0.23-0.09c-0.06-0.06-0.09-0.14-0.09-0.23V94.72
				c0-0.07-0.02-0.11-0.05-0.11c-0.04,0-0.07,0.03-0.11,0.08l-2.81,4.41c-0.09,0.14-0.21,0.21-0.37,0.21h-1.57
				c-0.16,0-0.28-0.07-0.37-0.21l-2.81-4.41c-0.03-0.05-0.07-0.07-0.11-0.07s-0.05,0.05-0.05,0.12v11.68c0,0.09-0.03,0.16-0.09,0.23
				c-0.06,0.06-0.14,0.09-0.23,0.09h-3.11c-0.09,0-0.16-0.03-0.23-0.09c-0.06-0.06-0.09-0.14-0.09-0.23V88.49
				c0-0.09,0.03-0.16,0.09-0.23c0.06-0.06,0.14-0.09,0.23-0.09h3.11c0.16,0,0.28,0.07,0.37,0.21l3.98,6.18
				c0.05,0.11,0.11,0.11,0.16,0l4.01-6.18C270.52,88.24,270.64,88.17,270.8,88.17z"/>
			<path d="M315.7,106.63c-0.06-0.06-0.09-0.14-0.09-0.23v-6.71c0-0.07-0.01-0.12-0.03-0.16l-5.47-10.99
				c-0.04-0.07-0.05-0.12-0.05-0.16c0-0.14,0.1-0.21,0.29-0.21h3.35c0.18,0,0.3,0.08,0.37,0.24l3.32,7.06
				c0.05,0.11,0.11,0.11,0.16,0l3.32-7.06c0.07-0.16,0.2-0.24,0.37-0.24h3.4c0.12,0,0.21,0.03,0.25,0.09
				c0.04,0.06,0.04,0.16-0.01,0.28l-5.52,10.99c-0.02,0.04-0.03,0.09-0.03,0.16v6.71c0,0.09-0.03,0.16-0.09,0.23
				c-0.06,0.06-0.14,0.09-0.23,0.09h-3.08C315.83,106.72,315.76,106.69,315.7,106.63z"/>
		</g>
	</g>
</g>
</svg>
